<?xml version="1.0" encoding="UTF-8" standalone="no"?>
<!DOCTYPE svg PUBLIC "-//W3C//DTD SVG 20010904//EN"
              "http://www.w3.org/TR/2001/REC-SVG-20010904/DTD/svg10.dtd">

<svg xmlns="http://www.w3.org/2000/svg"
     width="0.4in" height="0.666667in"
     viewBox="0 0 120 200">
  <path id="8"
        fill="none" stroke="black" stroke-width="1"
        d="M 46.18,24.00
           C 32.00,26.36 16.55,39.27 11.45,53.45
             6.36,67.64 4.12,83.75 17.25,87.88
             29.25,90.88 38.64,86.31 56.12,80.25
             74.51,74.56 86.42,77.40 99.45,82.36
             112.92,88.50 115.75,100.00 114.00,113.75
             111.84,133.03 99.93,141.41 94.36,145.64
             89.07,149.66 76.25,157.88 57.97,160.13
             44.41,162.33 30.33,160.67 21.45,149.45
             11.69,134.37 22.88,110.00 30.40,101.11
             47.88,85.25 61.38,70.49 63.75,68.50
             77.57,55.23 77.64,47.27 76.00,34.18
             74.36,21.09 46.84,23.91 46.84,23.91" />
</svg>
