<?xml version="1.0" encoding="UTF-8" standalone="no"?>
<!DOCTYPE svg PUBLIC "-//W3C//DTD SVG 20010904//EN"
              "http://www.w3.org/TR/2001/REC-SVG-20010904/DTD/svg10.dtd">

<svg xmlns="http://www.w3.org/2000/svg"
     width="0.4in" height="0.666667in"
     viewBox="0 0 120 200">
  <path id="Q"
        fill="none" stroke="black" stroke-width="1"
        d="M 54.36,42.91
           C 54.36,42.91 30.73,62.36 24.55,80.73
             19.89,91.30 15.80,95.56 12.36,120.36
             12.31,120.73 11.69,132.35 11.64,132.73
             12.57,142.03 16.67,145.28 19.82,148.00
             23.44,151.13 26.27,153.07 29.09,154.73
             29.09,154.80 44.70,158.16 56.55,153.64
             72.67,147.48 86.36,132.91 86.36,132.91
             86.36,132.91 96.01,121.94 100.55,110.55
             105.86,97.19 106.18,83.09 106.18,83.09
             106.18,83.09 108.94,70.21 105.82,59.64
             103.15,50.60 94.55,43.64 94.55,43.64
             94.55,43.64 83.69,35.36 74.55,34.91
             65.15,34.45 57.45,41.82 57.45,41.82
             57.45,41.82 51.72,52.92 51.45,60.18
             50.81,77.56 55.27,101.09 55.27,101.09
             55.27,101.09 57.09,116.45 60.73,130.00
             64.80,145.18 70.73,158.73 70.73,158.73
             70.73,158.73 75.20,171.48 80.73,181.27
             85.51,189.75 91.45,195.45 91.45,195.45" />
</svg>
