<?xml version="1.0" encoding="UTF-8" standalone="no"?>
<!DOCTYPE svg PUBLIC "-//W3C//DTD SVG 20010904//EN"
              "http://www.w3.org/TR/2001/REC-SVG-20010904/DTD/svg10.dtd">

<svg xmlns="http://www.w3.org/2000/svg"
     width="0.4in" height="0.666667in"
     viewBox="0 0 120 200">
  <path id="g"
        fill="none" stroke="black" stroke-width="1"
        d="M 101.50,106.00
           C 101.75,90.25 97.00,75.00 91.25,72.75
             85.50,70.50 79.50,67.25 67.75,76.75
             56.00,86.25 47.25,99.00 41.75,111.75
             36.25,124.50 36.00,127.50 36.50,134.00
             37.00,140.50 41.75,146.00 46.00,145.75
             50.25,145.50 60.00,147.00 70.75,138.50
             81.50,130.00 82.25,131.25 90.75,121.50
             99.25,111.75 101.78,106.13 101.78,106.13
             101.78,106.13 87.40,145.05 85.09,152.52
             82.30,161.52 80.57,166.39 76.25,176.75
             73.83,184.35 71.04,187.83 67.75,191.00
             66.00,193.65 56.00,197.00 49.75,194.50
             43.50,192.00 34.25,189.69 31.00,180.19
             28.50,175.94 26.31,170.94 26.31,170.94" />
</svg>
